<svg xmlns="http://www.w3.org/2000/svg" viewBox="0 0 64 64" fill="none">
  <!-- Gear Shape / Outer Ring -->
  <path fill="#E65100" d="M32 0C34.5 0 36.9 0.4 39.2 1.2L41.3 5.4C43.1 5.9 44.8 6.6 46.4 7.6L50.8 6.2C52.8 8.1 54.5 10.3 55.8 12.8L53.4 16.8C54.1 18.6 54.7 20.4 55 22.3L59.4 23.4C59.8 26.2 59.8 29 59.4 31.8L55 32.9C54.7 34.8 54.1 36.6 53.4 38.4L55.8 42.4C54.5 44.9 52.8 47.1 50.8 49L46.4 47.6C44.8 48.6 43.1 49.3 41.3 49.8L39.2 54C36.9 54.8 34.5 55.2 32 55.2C29.5 55.2 27.1 54.8 24.8 54L22.7 49.8C20.9 49.3 19.2 48.6 17.6 47.6L13.2 49C11.2 47.1 9.5 44.9 8.2 42.4L10.6 38.4C9.9 36.6 9.3 34.8 9 32.9L4.6 31.8C4.2 29 4.2 26.2 4.6 23.4L9 22.3C9.3 20.4 9.9 18.6 10.6 16.8L8.2 12.8C9.5 10.3 11.2 8.1 13.2 6.2L17.6 7.6C19.2 6.6 20.9 5.9 22.7 5.4L24.8 1.2C27.1 0.4 29.5 0 32 0ZM32 12C21 12 12 21 12 32C12 43 21 52 32 52C43 52 52 43 52 32C52 21 43 12 32 12Z" />

  <!-- Inner Sun -->
  <circle cx="32" cy="32" r="14" fill="#FFA500" />
  
  <!-- Sun Rays (Simplified, bold) -->
  <path fill="#FFA500" d="M32 16L32 8M32 56L32 48M16 32L8 32M56 32L48 32M20.7 20.7L15 15M49 49L43.3 43.3M20.7 43.3L15 49M49 15L43.3 20.7" stroke="#FFA500" stroke-width="4" stroke-linecap="round"/>
</svg>
